<svg id="Calque_1" data-name="Calque 1" xmlns="http://www.w3.org/2000/svg" viewBox="0 0 40 40"><defs><style>.cls-1{fill:#ffac09;}.cls-2{fill:#161110;}</style></defs><title>Insta</title><rect class="cls-1" width="40" height="40"/><path class="cls-2" d="M50.77,37c1.66,0,3.53,0,5.4.1,4.27.22,6.91,3,7.14,7.18.15,2.73.12,5.47.06,8.2a26,26,0,0,1-.28,4.57,7,7,0,0,1-7,5.88c-2.58.15-5.18,0-7.76,0a24.94,24.94,0,0,1-5.11-.22,6.86,6.86,0,0,1-5.71-6.31c-.26-2.57-.1-5.14-.11-7.71,0-1.6,0-3.2.11-4.8a7.19,7.19,0,0,1,7.12-6.82C46.64,37,48.6,37,50.77,37Z" transform="translate(-30 -30)"/><path class="cls-1" d="M50.29,56.7a6.62,6.62,0,0,1-6.59-6.84,6.83,6.83,0,0,1,6.85-6.57A6.74,6.74,0,0,1,57.11,50,6.65,6.65,0,0,1,50.29,56.7Zm4.35-6.59a4.26,4.26,0,0,0-4-4.33,4.33,4.33,0,0,0-4.5,4.11,4.25,4.25,0,1,0,8.5.22Z" transform="translate(-30 -30)"/><path class="cls-1" d="M58.93,43.12a1.56,1.56,0,0,1-1.62,1.59,1.59,1.59,0,0,1-1.59-1.63,1.67,1.67,0,0,1,1.64-1.6A1.62,1.62,0,0,1,58.93,43.12Z" transform="translate(-30 -30)"/></svg>