<svg id="Calque_1" data-name="Calque 1" xmlns="http://www.w3.org/2000/svg" viewBox="0 0 44.01 60.61"><defs><style>.cls-1{fill:#feab06;}</style></defs><title>Picto_Application</title><path class="cls-1" d="M70.91,41.15H37.35a1.1,1.1,0,1,1,0-2.19H70.91a1.1,1.1,0,1,1,0,2.19Z" transform="translate(-27.99 -19.69)"/><path class="cls-1" d="M62.92,80.31H45.43a7.5,7.5,0,0,1-7.49-7.49V40.05A1.09,1.09,0,0,1,39,39H69.31a1.09,1.09,0,0,1,1.1,1.09V72.82A7.5,7.5,0,0,1,62.92,80.31ZM40.13,41.15V72.82a5.3,5.3,0,0,0,5.3,5.29H62.92a5.29,5.29,0,0,0,5.29-5.29V41.15Z" transform="translate(-27.99 -19.69)"/><path class="cls-1" d="M45.85,58.38h-.11a2.7,2.7,0,0,1-2-.93c-1.26-1.43-1.06-4.06-1-4.35V40.05a1.1,1.1,0,0,1,2.2,0V53.2a4.6,4.6,0,0,0,.49,2.8.5.5,0,0,0,.4.18.25.25,0,0,0,.28-.1A5.18,5.18,0,0,0,46.64,53c0-.34-.6-4.12,1-6A3,3,0,0,1,50,46c2.57,0,2.61,2.7,2.63,4.31,0,.9,0,2.14.4,2.48a.9.9,0,0,0,.62.14c.45-.24.79-2.11.73-3.75L54.53,40A1.07,1.07,0,0,1,55.65,39a1.09,1.09,0,0,1,1.07,1.11l-.16,9.06c0,.61.06,4-1.31,5.33a2.06,2.06,0,0,1-1.62.63,2.76,2.76,0,0,1-2.12-.73c-1-1-1.07-2.61-1.09-4,0-1.83-.16-2.14-.44-2.14a.81.81,0,0,0-.68.28c-.74.88-.64,3.28-.48,4.31,0,.63.2,3.44-1.13,4.83A2.49,2.49,0,0,1,45.85,58.38Z" transform="translate(-27.99 -19.69)"/><path class="cls-1" d="M39,71.07H33.35A5.31,5.31,0,0,1,28,65.83V49.7a5.31,5.31,0,0,1,5.36-5.24H39a1.1,1.1,0,0,1,1.1,1.1V70A1.09,1.09,0,0,1,39,71.07ZM33.35,46.66a3.1,3.1,0,0,0-3.16,3V65.83a3.11,3.11,0,0,0,3.16,3h4.59V46.66Z" transform="translate(-27.99 -19.69)"/><path class="cls-1" d="M39,67.61h-3.7a4,4,0,0,1-3.87-4.12V51.7a4,4,0,0,1,3.87-4.13H39a1.1,1.1,0,0,1,1.1,1.1V66.51A1.1,1.1,0,0,1,39,67.61Zm-3.7-17.85a1.83,1.83,0,0,0-1.68,1.94V63.49a1.83,1.83,0,0,0,1.68,1.93h2.61V49.76Z" transform="translate(-27.99 -19.69)"/><path class="cls-1" d="M50.67,41.15a1.1,1.1,0,0,1-1.1-1.1V28L46,22.75,42.53,28v12.1a1.1,1.1,0,0,1-2.2,0V27.62a1.09,1.09,0,0,1,.19-.6L45,20.18a1.15,1.15,0,0,1,.91-.49h0a1.08,1.08,0,0,1,.9.48L51.57,27a1.08,1.08,0,0,1,.19.62V40.05A1.09,1.09,0,0,1,50.67,41.15Z" transform="translate(-27.99 -19.69)"/><path class="cls-1" d="M45.92,25.9a4.29,4.29,0,0,1-2.87-1.07,1.1,1.1,0,0,1,1.5-1.6,2.39,2.39,0,0,0,3-.1,1.09,1.09,0,1,1,1.23,1.81A5.06,5.06,0,0,1,45.92,25.9Z" transform="translate(-27.99 -19.69)"/><path class="cls-1" d="M45.75,29.67a10.12,10.12,0,0,1-4.88-1.1,1.11,1.11,0,0,1-.38-1.51,1.09,1.09,0,0,1,1.5-.38c.14.08,3.24,1.81,8.29-.08a1.09,1.09,0,1,1,.77,2A15.06,15.06,0,0,1,45.75,29.67Z" transform="translate(-27.99 -19.69)"/><path class="cls-1" d="M46,41.15a1.1,1.1,0,0,1-1.1-1.1V28.57a1.1,1.1,0,1,1,2.2,0V40.05A1.1,1.1,0,0,1,46,41.15Z" transform="translate(-27.99 -19.69)"/><path class="cls-1" d="M54.13,41.15h0A1.09,1.09,0,0,1,53,40.05l0-14.38a3.61,3.61,0,0,1,.84-2.58,3.07,3.07,0,0,1,4.35.17A3.72,3.72,0,0,1,58.94,26l0,14a1.1,1.1,0,0,1-1.1,1.1h0a1.09,1.09,0,0,1-1.1-1.09l0-14.21a1.84,1.84,0,0,0-.19-1.2s-.15-.17-.54-.19-.49.1-.52.14a1.59,1.59,0,0,0-.25,1l0,14.48A1.11,1.11,0,0,1,54.13,41.15Z" transform="translate(-27.99 -19.69)"/><path class="cls-1" d="M60.52,41.15a1.13,1.13,0,0,1-.36-.06,1.09,1.09,0,0,1-.67-1.4l4.17-11.95a4.64,4.64,0,0,1,2.12-2.59A4.14,4.14,0,0,1,69,25a3.9,3.9,0,0,1,2.44,2,4.92,4.92,0,0,1,0,3.86C70.87,32.26,68,40.41,68,40.41L66,39.69s2.85-8.18,3.39-9.64a3,3,0,0,0,.14-2.15,1.79,1.79,0,0,0-1.14-.83,2,2,0,0,0-1.56,0,2.5,2.5,0,0,0-1.05,1.32l-4.18,12A1.1,1.1,0,0,1,60.52,41.15Z" transform="translate(-27.99 -19.69)"/><path class="cls-1" d="M68.58,36.61a1.19,1.19,0,0,1-.37-.06l-5.76-2.08a1.09,1.09,0,0,1-.66-1.4,1.11,1.11,0,0,1,1.41-.66L69,34.48a1.1,1.1,0,0,1-.38,2.13Z" transform="translate(-27.99 -19.69)"/><path class="cls-1" d="M68.85,27.14a1.1,1.1,0,0,1-1-1.55l.92-2a1.1,1.1,0,1,1,2,.91l-.92,2A1.12,1.12,0,0,1,68.85,27.14Z" transform="translate(-27.99 -19.69)"/><path class="cls-1" d="M54.22,65.3a3.58,3.58,0,1,1,3.58-3.58A3.59,3.59,0,0,1,54.22,65.3Zm0-5a1.39,1.39,0,1,0,1.38,1.39A1.39,1.39,0,0,0,54.22,60.33Z" transform="translate(-27.99 -19.69)"/></svg>