<svg id="Calque_1" data-name="Calque 1" xmlns="http://www.w3.org/2000/svg" viewBox="0 0 55.51 56.22"><defs><style>.cls-1{fill:#feab06;}</style></defs><title>Picto_Communication</title><path class="cls-1" d="M57.66,66.19H42.34a1.07,1.07,0,0,1-1-.76,1.09,1.09,0,0,1,.4-1.23l3.81-2.73V41.55H41.26L38.9,43.44a1.09,1.09,0,0,1-1.16.14,1.11,1.11,0,0,1-.62-1v-8a1.09,1.09,0,0,1,1.09-1.1H53.39a1.1,1.1,0,0,1,0,2.2H39.31v4.6l.88-.7a1.15,1.15,0,0,1,.69-.24H46.6a1.1,1.1,0,0,1,1.1,1.1V62a1.1,1.1,0,0,1-.46.89L45.75,64h8.33l-1.57-1.06A1.09,1.09,0,0,1,52,62V40.46a1.1,1.1,0,0,1,1.1-1.1h6.12a1.07,1.07,0,0,1,.71.26l.86.73V35.7H56.19a1.1,1.1,0,1,1,0-2.2h5.73A1.1,1.1,0,0,1,63,34.6v8.12a1.1,1.1,0,0,1-.64,1,1.13,1.13,0,0,1-1.17-.16l-2.36-2H54.22v19.9l4.05,2.74a1.09,1.09,0,0,1-.61,2Z" transform="translate(-22.24 -21.89)"/><path class="cls-1" d="M28.23,78.11A1.09,1.09,0,0,1,27.14,77V73.09H23.35a1.1,1.1,0,1,1,0-2.19h4.88a1.1,1.1,0,0,1,1.1,1.1v5A1.1,1.1,0,0,1,28.23,78.11Z" transform="translate(-22.24 -21.89)"/><path class="cls-1" d="M71.64,78A1.09,1.09,0,0,1,70.55,77V72.06A1.09,1.09,0,0,1,71.64,71h5a1.1,1.1,0,1,1,0,2.2H72.74V77A1.09,1.09,0,0,1,71.64,78Z" transform="translate(-22.24 -21.89)"/><path class="cls-1" d="M76.65,29.1H71.77a1.1,1.1,0,0,1-1.1-1.1V23a1.1,1.1,0,1,1,2.19,0V26.9h3.79a1.1,1.1,0,0,1,0,2.2Z" transform="translate(-22.24 -21.89)"/><path class="cls-1" d="M28.36,29h-5a1.1,1.1,0,1,1,0-2.19h3.92V23.05a1.1,1.1,0,1,1,2.19,0v4.89A1.09,1.09,0,0,1,28.36,29Z" transform="translate(-22.24 -21.89)"/><path class="cls-1" d="M71.64,73.16H70.55a1.1,1.1,0,0,1,0-2.2,1.1,1.1,0,0,1,2.19,0v1.1A1.1,1.1,0,0,1,71.64,73.16Z" transform="translate(-22.24 -21.89)"/><path class="cls-1" d="M65.71,73.16H63.29a1.1,1.1,0,0,1,0-2.2h2.42a1.1,1.1,0,0,1,0,2.2Zm-7.25,0H56A1.1,1.1,0,0,1,56,71h2.42a1.1,1.1,0,0,1,0,2.2Z" transform="translate(-22.24 -21.89)"/><path class="cls-1" d="M51.21,73.16H48.79a1.1,1.1,0,0,1,0-2.2h2.42a1.1,1.1,0,0,1,0,2.2Zm-7.25,0H41.54a1.1,1.1,0,0,1,0-2.2H44a1.1,1.1,0,0,1,0,2.2Zm-7.25,0H34.29a1.1,1.1,0,0,1,0-2.2h2.42a1.1,1.1,0,0,1,0,2.2Z" transform="translate(-22.24 -21.89)"/><path class="cls-1" d="M29.45,73.16H28.36a1.1,1.1,0,0,1-1.1-1.1V71a1.1,1.1,0,0,1,2.19,0,1.1,1.1,0,0,1,0,2.2Z" transform="translate(-22.24 -21.89)"/><path class="cls-1" d="M28.36,67.13a1.1,1.1,0,0,1-1.1-1.1V63.57a1.1,1.1,0,1,1,2.19,0V66A1.09,1.09,0,0,1,28.36,67.13Zm0-7.4a1.1,1.1,0,0,1-1.1-1.1V56.17a1.1,1.1,0,1,1,2.19,0v2.46A1.09,1.09,0,0,1,28.36,59.73Z" transform="translate(-22.24 -21.89)"/><path class="cls-1" d="M28.36,52.33a1.1,1.1,0,0,1-1.1-1.1V48.77a1.1,1.1,0,1,1,2.19,0v2.46A1.09,1.09,0,0,1,28.36,52.33Zm0-7.4a1.1,1.1,0,0,1-1.1-1.1V41.37a1.1,1.1,0,1,1,2.19,0v2.46A1.09,1.09,0,0,1,28.36,44.93Zm0-7.4a1.1,1.1,0,0,1-1.1-1.1V34a1.1,1.1,0,1,1,2.19,0v2.46A1.09,1.09,0,0,1,28.36,37.53Z" transform="translate(-22.24 -21.89)"/><path class="cls-1" d="M28.36,30.13a1.1,1.1,0,0,1-1.1-1.1V27.94a1.1,1.1,0,0,1,1.1-1.1h1.09a1.1,1.1,0,1,1,0,2.19A1.09,1.09,0,0,1,28.36,30.13Z" transform="translate(-22.24 -21.89)"/><path class="cls-1" d="M44,29H41.54a1.1,1.1,0,1,1,0-2.19H44A1.1,1.1,0,0,1,44,29Zm-7.25,0H34.29a1.1,1.1,0,1,1,0-2.19h2.42a1.1,1.1,0,0,1,0,2.19Z" transform="translate(-22.24 -21.89)"/><path class="cls-1" d="M65.71,29H63.3a1.1,1.1,0,1,1,0-2.19h2.41a1.1,1.1,0,1,1,0,2.19Zm-7.25,0H56a1.1,1.1,0,0,1,0-2.19h2.42a1.1,1.1,0,1,1,0,2.19Zm-7.25,0H48.79a1.1,1.1,0,0,1,0-2.19h2.42a1.1,1.1,0,1,1,0,2.19Z" transform="translate(-22.24 -21.89)"/><path class="cls-1" d="M71.64,30.13A1.09,1.09,0,0,1,70.55,29a1.1,1.1,0,1,1,0-2.19h1.09a1.1,1.1,0,0,1,1.1,1.1V29A1.1,1.1,0,0,1,71.64,30.13Z" transform="translate(-22.24 -21.89)"/><path class="cls-1" d="M71.64,44.93a1.09,1.09,0,0,1-1.09-1.1V41.37a1.1,1.1,0,1,1,2.19,0v2.46A1.1,1.1,0,0,1,71.64,44.93Zm0-7.4a1.09,1.09,0,0,1-1.09-1.1V34a1.1,1.1,0,1,1,2.19,0v2.46A1.1,1.1,0,0,1,71.64,37.53Z" transform="translate(-22.24 -21.89)"/><path class="cls-1" d="M71.64,67.13A1.09,1.09,0,0,1,70.55,66V63.56a1.1,1.1,0,0,1,2.19,0V66A1.1,1.1,0,0,1,71.64,67.13Zm0-7.4a1.09,1.09,0,0,1-1.09-1.1V56.17a1.1,1.1,0,1,1,2.19,0v2.46A1.1,1.1,0,0,1,71.64,59.73Zm0-7.4a1.09,1.09,0,0,1-1.09-1.1V48.77a1.1,1.1,0,1,1,2.19,0v2.46A1.1,1.1,0,0,1,71.64,52.33Z" transform="translate(-22.24 -21.89)"/></svg>