<svg id="Calque_1" data-name="Calque 1" xmlns="http://www.w3.org/2000/svg" viewBox="0 0 60.26 58.73"><defs><style>.cls-1{fill:#feab06;}.cls-2{fill:none;stroke:#feab06;stroke-linecap:round;stroke-linejoin:round;}</style></defs><title>Picto_Creactivite</title><path class="cls-1" d="M56.28,63.3a1.09,1.09,0,0,1-1.1-1.09c0-2.47,1.87-4,4-5.87a23.26,23.26,0,0,0,4.78-5c3.2-4.91,3.32-9,3.22-10.54a2.14,2.14,0,0,1,0-.36,17.42,17.42,0,1,0-34.84-.17c0,.24-.83,5.2,3.14,11.28a21.82,21.82,0,0,0,4.79,5c1.78,1.47,3.37,2.78,3.82,4.62h9a1.1,1.1,0,1,1,0,2.19h-10a1.09,1.09,0,0,1-1.09-1.09c0-1.36-1.14-2.37-3.16-4a24,24,0,0,1-5.23-5.44c-4.47-6.85-3.52-12.44-3.48-12.68a19.61,19.61,0,0,1,39.22.2c0,.11,0,.22,0,.34a20,20,0,0,1-3.58,11.92,25.46,25.46,0,0,1-5.2,5.5c-2.08,1.75-3.25,2.81-3.25,4.19A1.09,1.09,0,0,1,56.28,63.3Z" transform="translate(-19.87 -20.64)"/><path class="cls-2" d="M43.16,62.21" transform="translate(-19.87 -20.64)"/><path class="cls-1" d="M55.75,71.76a1.1,1.1,0,0,1,0-2.19c1,0,1.65-.54,1.65-1s-.68-1-1.65-1a1.1,1.1,0,0,1,0-2.19c2.12,0,3.84,1.44,3.84,3.21S57.87,71.76,55.75,71.76Z" transform="translate(-19.87 -20.64)"/><path class="cls-1" d="M43.68,71.76c-2.12,0-3.84-1.44-3.84-3.21s1.72-3.21,3.84-3.21a1.1,1.1,0,0,1,0,2.19c-1,0-1.65.54-1.65,1s.68,1,1.65,1a1.1,1.1,0,0,1,0,2.19Z" transform="translate(-19.87 -20.64)"/><path class="cls-1" d="M55.75,67.53a1.1,1.1,0,0,1,0-2.19c1,0,1.65-.54,1.65-1,0-.69-.36-1-1.12-1a1.1,1.1,0,1,1,0-2.19,3.09,3.09,0,0,1,3.31,3.21C59.59,66.09,57.87,67.53,55.75,67.53Z" transform="translate(-19.87 -20.64)"/><path class="cls-1" d="M53.17,67.53H43.68c-2.12,0-3.84-1.44-3.84-3.21s1.72-3.21,3.84-3.21h9.44a1.1,1.1,0,1,1,0,2.19H43.68c-1,0-1.65.54-1.65,1s.7,1,1.65,1h9.49a1.1,1.1,0,1,1,0,2.19Z" transform="translate(-19.87 -20.64)"/><path class="cls-1" d="M55.75,76H46.49a1.1,1.1,0,1,1,0-2.19h9.26c1,0,1.65-.54,1.65-1s-.68-1-1.65-1a1.1,1.1,0,0,1,0-2.19c2.12,0,3.84,1.44,3.84,3.21S57.87,76,55.75,76Z" transform="translate(-19.87 -20.64)"/><path class="cls-1" d="M43.68,76c-2.12,0-3.84-1.44-3.84-3.21s1.72-3.21,3.84-3.21h9.55a1.1,1.1,0,0,1,0,2.19H43.68c-1,0-1.65.54-1.65,1s.7,1,1.65,1a1.1,1.1,0,0,1,0,2.19Z" transform="translate(-19.87 -20.64)"/><path class="cls-1" d="M51.24,79.36H48.19a2.78,2.78,0,0,1-2.78-2.78l0-1.67a1.06,1.06,0,0,1,.32-.78,1.07,1.07,0,0,1,.78-.33h4.75a2.78,2.78,0,0,1,0,5.56ZM47.6,76v.58a.59.59,0,0,0,.59.6h3.05a.58.58,0,0,0,.59-.59.59.59,0,0,0-.59-.59Z" transform="translate(-19.87 -20.64)"/><path class="cls-1" d="M67.22,27.27a1.08,1.08,0,0,1-.82-.37,1.1,1.1,0,0,1,.1-1.55l5-4.44A1.1,1.1,0,0,1,73,22.56L68,27A1.12,1.12,0,0,1,67.22,27.27Z" transform="translate(-19.87 -20.64)"/><path class="cls-1" d="M71.08,34a1.09,1.09,0,0,1-.38-2.12l6.21-2.3a1.09,1.09,0,1,1,.76,2.05L71.46,33.9A1.31,1.31,0,0,1,71.08,34Z" transform="translate(-19.87 -20.64)"/><path class="cls-1" d="M79,41.73h0l-6.78-.21a1.1,1.1,0,0,1-1.06-1.13,1.18,1.18,0,0,1,1.13-1.07l6.78.22a1.1,1.1,0,0,1,0,2.19Z" transform="translate(-19.87 -20.64)"/><path class="cls-1" d="M32.78,27.27a1.12,1.12,0,0,1-.73-.27l-5-4.44a1.1,1.1,0,1,1,1.45-1.65l5,4.44a1.1,1.1,0,0,1,.1,1.55A1.08,1.08,0,0,1,32.78,27.27Z" transform="translate(-19.87 -20.64)"/><path class="cls-1" d="M28.92,34a1.31,1.31,0,0,1-.38-.06l-6.21-2.31a1.09,1.09,0,1,1,.77-2.05l6.2,2.3A1.09,1.09,0,0,1,28.92,34Z" transform="translate(-19.87 -20.64)"/><path class="cls-1" d="M21,41.73a1.1,1.1,0,0,1,0-2.19l6.78-.22a1.1,1.1,0,0,1,.07,2.2L21,41.73Z" transform="translate(-19.87 -20.64)"/><path class="cls-1" d="M51.44,58.46s0-8.71,0-14H49.63a1.1,1.1,0,0,1,0-2.2h0l1.75,0c0-.85,0-1.44,0-1.66,0-2.9,1.34-6,5-6,3.07,0,4.9,1.85,4.9,5,0,1.71-1.19,4.95-5.7,4.95h-2c0,5.27,0,14,0,14ZM53.6,42.3l2,0c3.4,0,3.5-2.47,3.5-2.76,0-2.47-1.55-2.76-2.71-2.76-2.43,0-2.81,2.41-2.82,3.84Z" transform="translate(-19.87 -20.64)"/><path class="cls-1" d="M48.15,58.46H46s0-8.69,0-14H44c-4.52,0-5.71-3.24-5.71-4.95,0-3.1,1.83-5,4.89-5,3.66,0,5,3.11,5,6v1.66l1.75,0h0a1.1,1.1,0,0,1,0,2.2H48.18C48.17,49.75,48.15,58.46,48.15,58.46Zm-5-21.66c-1.16,0-2.7.29-2.7,2.76,0,.29.1,2.76,3.51,2.76l2,0V40.64C46,39.21,45.59,36.8,43.16,36.8Z" transform="translate(-19.87 -20.64)"/></svg>