<svg id="Calque_1" data-name="Calque 1" xmlns="http://www.w3.org/2000/svg" viewBox="0 0 40 40"><defs><style>.cls-1{fill:#ffac09;}.cls-2{fill:#161110;}</style></defs><title>FB</title><rect class="cls-1" width="40" height="40"/><path class="cls-2" d="M46.15,70c0-.24,0-.49,0-.73V53.81c0-.08,0-.16,0-.27h-.66c-.87,0-1.74,0-2.61,0-.26,0-.34-.09-.34-.35,0-1.79,0-3.59,0-5.39,0-.28.11-.35.36-.35h3c.22,0,.29,0,.29-.28,0-1.34,0-2.69,0-4a8.54,8.54,0,0,1,1-4.1,5.75,5.75,0,0,1,3.32-2.56,12.18,12.18,0,0,1,3.7-.48c1.42,0,2.83,0,4.24,0,.38,0,.4,0,.4.4v5.26c0,.43,0,.43-.44.43-1.13,0-2.25,0-3.37,0a1.44,1.44,0,0,0-1.39.74,2.8,2.8,0,0,0-.22,1c0,1.14,0,2.28-.05,3.42,0,.2.11.18.24.18h5c.2,0,.25.09.23.29-.18,1.54-.35,3.08-.52,4.62,0,.29-.06.58-.08.87s-.11.31-.35.31c-1.41,0-2.81,0-4.21,0h-.3V69.67c0,.11,0,.22,0,.33Z" transform="translate(-30 -30)"/></svg>