<svg id="Calque_1" data-name="Calque 1" xmlns="http://www.w3.org/2000/svg" viewBox="0 0 40 40"><defs><style>.cls-1{fill:#ffac09;}.cls-2{fill:#161110;}</style></defs><title>linkedin</title><rect class="cls-1" width="40" height="40"/><path class="cls-2" d="M52.51,46.62c.25-.33.48-.67.75-1a5.82,5.82,0,0,1,3.32-1.83,8.43,8.43,0,0,1,4.53.38,5.14,5.14,0,0,1,3.1,3.37,9.45,9.45,0,0,1,.51,2.58c.06,1,.11,1.94.12,2.92,0,3,0,6,0,9.08v.23c0,.13,0,.19-.18.17H59.32c-.22,0-.27-.07-.27-.28q0-4.89,0-9.78a5.63,5.63,0,0,0-.43-2.25,2.36,2.36,0,0,0-2.19-1.46,4,4,0,0,0-1.74.23A2.87,2.87,0,0,0,53,51.17a9.66,9.66,0,0,0-.23,2.52v8.69c0,.13,0,.19-.18.17H47.23c-.21,0-.26-.07-.26-.27V44.41c0-.2.05-.27.26-.27h5c.19,0,.24,0,.24.24,0,.67,0,1.35,0,2Z" transform="translate(-31.21 -29.02)"/><path class="cls-2" d="M37.69,53.35V44.44c0-.3,0-.3.3-.3H43.2c.22,0,.28.06.28.28V62.29c0,.2,0,.27-.26.27q-2.64,0-5.28,0c-.21,0-.26-.06-.26-.26Q37.69,57.82,37.69,53.35Z" transform="translate(-31.21 -29.02)"/><path class="cls-2" d="M40.55,41.7a3.34,3.34,0,1,1,3.37-3.34A3.32,3.32,0,0,1,40.55,41.7Z" transform="translate(-31.21 -29.02)"/></svg>