<svg id="Calque_1" data-name="Calque 1" xmlns="http://www.w3.org/2000/svg" viewBox="0 0 200.91 351.73"><defs><style>.cls-1,.cls-2{fill:#ffac09;}.cls-1{stroke:#ffac09;stroke-miterlimit:10;stroke-width:1.25px;}</style></defs><title>Logo</title><path class="cls-1" d="M64.61,231.31H59.87a10,10,0,0,1-.18-1.21q-.06-.66-.06-1.29a11.92,11.92,0,0,1,.24-2.43H70.42v21a9.08,9.08,0,0,1-.7,3.72,6.65,6.65,0,0,1-1.91,2.5A7.56,7.56,0,0,1,64.94,255a14.09,14.09,0,0,1-3.6.44,14.92,14.92,0,0,1-1.69-.12,14.35,14.35,0,0,1-1.93-.36l-.06-.55c0-.19,0-.39,0-.6a10.51,10.51,0,0,1,.67-3.66c.29.05.61.12,1,.2a4.68,4.68,0,0,0,1.07.12c.45,0,.93,0,1.43-.08a3,3,0,0,0,1.37-.48,3.06,3.06,0,0,0,1-1.17,4.74,4.74,0,0,0,.42-2.21Z" transform="translate(-24.55 -24.14)"/><path class="cls-1" d="M78.61,226.38c.5-.08,1-.13,1.47-.16s1,0,1.48,0,.91,0,1.39,0,1,.08,1.47.16v14.84a41.1,41.1,0,0,0,.18,4.16,8.84,8.84,0,0,0,.72,2.86,3.53,3.53,0,0,0,1.51,1.67,5.17,5.17,0,0,0,2.52.54,5.08,5.08,0,0,0,2.51-.54,3.6,3.6,0,0,0,1.49-1.67,8.84,8.84,0,0,0,.72-2.86,41.1,41.1,0,0,0,.18-4.16V226.38c.53-.08,1-.13,1.51-.16s.94,0,1.39,0,1,0,1.45,0,1,.08,1.5.16v16.07a27.14,27.14,0,0,1-.48,5.31,10.44,10.44,0,0,1-1.71,4.12,8.15,8.15,0,0,1-3.31,2.65,15.28,15.28,0,0,1-10.5,0,8.12,8.12,0,0,1-3.3-2.65,10.44,10.44,0,0,1-1.71-4.12,27.14,27.14,0,0,1-.48-5.31Z" transform="translate(-24.55 -24.14)"/><path class="cls-1" d="M108.45,226.38a17.51,17.51,0,0,1,2.82-.24,18.61,18.61,0,0,1,2.91.24V250h9.91a12.48,12.48,0,0,1,.15,1.29c0,.42,0,.81,0,1.18s0,.84,0,1.25a12.48,12.48,0,0,1-.15,1.29H108.45Z" transform="translate(-24.55 -24.14)"/><path class="cls-1" d="M131.05,226.38a18,18,0,0,1,2.9-.24,18.81,18.81,0,0,1,3,.24V255a18.61,18.61,0,0,1-2.91.24,18.22,18.22,0,0,1-2.94-.24Z" transform="translate(-24.55 -24.14)"/><path class="cls-1" d="M145.45,226.38h16.23a12.21,12.21,0,0,1,.24,2.43,12.62,12.62,0,0,1-.24,2.5H151.26v6.21h8.27a13.3,13.3,0,0,1,.24,2.46,13.1,13.1,0,0,1-.24,2.51h-8.27v7.56H162a12.36,12.36,0,0,1,.24,2.43A12.62,12.62,0,0,1,162,255H145.45Z" transform="translate(-24.55 -24.14)"/><path class="cls-1" d="M169.56,226.38a12.33,12.33,0,0,1,2.35-.24,13.21,13.21,0,0,1,2.46.24l11.06,18.22V226.38a16.68,16.68,0,0,1,2.75-.24,11.74,11.74,0,0,1,2.39.24V255a12.59,12.59,0,0,1-2.31.24,13.66,13.66,0,0,1-2.43-.24L174.69,236.8V255a13.92,13.92,0,0,1-2.58.24,13.29,13.29,0,0,1-2.55-.24Z" transform="translate(-24.55 -24.14)"/><path class="cls-1" d="M46.52,300.21a15.38,15.38,0,0,1,.86,2.29,17.71,17.71,0,0,1,.5,2.36,18.6,18.6,0,0,1-3.72,1,24.81,24.81,0,0,1-3.56.24,14.9,14.9,0,0,1-5.93-1.1,11.89,11.89,0,0,1-4.28-3.06,13.06,13.06,0,0,1-2.6-4.67,18.89,18.89,0,0,1-.88-5.89,18.17,18.17,0,0,1,.92-5.91,13.85,13.85,0,0,1,2.64-4.72,11.91,11.91,0,0,1,4.26-3.1,14.14,14.14,0,0,1,5.75-1.11,25.59,25.59,0,0,1,3.52.23,15.78,15.78,0,0,1,3.48,1A8.48,8.48,0,0,1,47,280.1c-.26.75-.56,1.52-.87,2.29a17.1,17.1,0,0,0-2.47-.68,14.5,14.5,0,0,0-2.55-.2A7.15,7.15,0,0,0,35.25,284q-2.05,2.47-2,7.38,0,9.71,8.23,9.7a15.31,15.31,0,0,0,2.59-.19A17.65,17.65,0,0,0,46.52,300.21Z" transform="translate(-24.55 -24.14)"/><path class="cls-1" d="M65.66,306.1A12.79,12.79,0,0,1,60.09,305a10.45,10.45,0,0,1-3.86-3.08A13.48,13.48,0,0,1,54,297.24a22.13,22.13,0,0,1-.73-5.86,22.62,22.62,0,0,1,.73-5.91,13.69,13.69,0,0,1,2.25-4.72,10.4,10.4,0,0,1,3.86-3.1,14.53,14.53,0,0,1,11.14,0,10.33,10.33,0,0,1,3.86,3.1,13.51,13.51,0,0,1,2.25,4.72,22.62,22.62,0,0,1,.73,5.91,22.13,22.13,0,0,1-.73,5.86,13.3,13.3,0,0,1-2.25,4.66A10.37,10.37,0,0,1,71.23,305,12.75,12.75,0,0,1,65.66,306.1Zm0-4.86q6.16,0,6.17-9.86,0-4.94-1.49-7.4a5,5,0,0,0-4.64-2.47q-6.24,0-6.25,9.87T65.66,301.24Z" transform="translate(-24.55 -24.14)"/><path class="cls-1" d="M85.87,277a18.75,18.75,0,0,1,2.83-.24,19.88,19.88,0,0,1,2.9.24v23.6h9.91a12.6,12.6,0,0,1,.16,1.29c0,.41,0,.8,0,1.17s0,.85,0,1.26a12.6,12.6,0,0,1-.16,1.29H85.87Z" transform="translate(-24.55 -24.14)"/><path class="cls-1" d="M109.27,277a21.93,21.93,0,0,1,3.06-.24,20.81,20.81,0,0,1,3.06.24l6.57,16.4,6.76-16.4a15.3,15.3,0,0,1,2.75-.24,18.2,18.2,0,0,1,2.9.24l1.35,28.61a18.28,18.28,0,0,1-2.86.24,14.9,14.9,0,0,1-2.67-.24l-.71-19.42-5.81,13.45c-.37.06-.76.1-1.16.14a11.71,11.71,0,0,1-1.19.06c-.34,0-.69,0-1,0a8.55,8.55,0,0,1-1.08-.16l-5.41-13.72-.56,19.69a13.21,13.21,0,0,1-2.46.24,15,15,0,0,1-2.63-.24Z" transform="translate(-24.55 -24.14)"/><path class="cls-1" d="M155.62,306.1A12.83,12.83,0,0,1,150,305a10.34,10.34,0,0,1-3.85-3.08,13.3,13.3,0,0,1-2.25-4.66,22.12,22.12,0,0,1-.74-5.86,22.61,22.61,0,0,1,.74-5.91,13.51,13.51,0,0,1,2.25-4.72,10.29,10.29,0,0,1,3.85-3.1,14.53,14.53,0,0,1,11.14,0,10.25,10.25,0,0,1,3.86,3.1,13.51,13.51,0,0,1,2.25,4.72,22.61,22.61,0,0,1,.74,5.91,22.12,22.12,0,0,1-.74,5.86A13.3,13.3,0,0,1,165,301.9a10.3,10.3,0,0,1-3.86,3.08A12.74,12.74,0,0,1,155.62,306.1Zm0-4.86q6.16,0,6.16-9.86,0-4.94-1.49-7.4a5,5,0,0,0-4.64-2.47q-6.24,0-6.24,9.87T155.62,301.24Z" transform="translate(-24.55 -24.14)"/><path class="cls-1" d="M175.83,277a13.09,13.09,0,0,1,2.34-.24,14.23,14.23,0,0,1,2.47.24l11.06,18.23V277a17.84,17.84,0,0,1,2.75-.24,12.39,12.39,0,0,1,2.38.24v28.61a12.58,12.58,0,0,1-2.3.24,13.49,13.49,0,0,1-2.43-.24L181,287.44v18.18a13.94,13.94,0,0,1-2.59.24,13.26,13.26,0,0,1-2.54-.24Z" transform="translate(-24.55 -24.14)"/><path class="cls-1" d="M211,282h-7.13a13.54,13.54,0,0,1-.23-2.51,13.16,13.16,0,0,1,.23-2.43h20.1a12.36,12.36,0,0,1,.24,2.43,12.73,12.73,0,0,1-.24,2.51H216.8v23.67l-1.43.14c-.47,0-.94.06-1.39.06s-.94,0-1.45,0-1-.08-1.57-.16Z" transform="translate(-24.55 -24.14)"/><rect class="cls-2" y="309.94" width="200.91" height="2"/><path class="cls-2" d="M74.06,366.14l.63-.08.66,0,.66,0,.61.08V375a8.91,8.91,0,0,1-1.17.39,10.84,10.84,0,0,1-1.31.25c-.46.06-.91.11-1.37.14s-.89.05-1.29.05a10,10,0,0,1-3.65-.63,7.13,7.13,0,0,1-2.73-1.84,8.05,8.05,0,0,1-1.71-2.92,11.83,11.83,0,0,1-.6-3.9,12.2,12.2,0,0,1,.61-3.94,8.55,8.55,0,0,1,1.74-3,7.78,7.78,0,0,1,2.68-1.91,8.78,8.78,0,0,1,3.46-.67,14.06,14.06,0,0,1,2.5.19,11,11,0,0,1,1.93.52,5,5,0,0,1-.22,1.08q-.17.5-.39,1.05a14.74,14.74,0,0,0-1.53-.41,10,10,0,0,0-2.07-.17,6,6,0,0,0-2.44.48,5,5,0,0,0-1.87,1.4A6.69,6.69,0,0,0,66,363.47a10.46,10.46,0,0,0-.43,3.1,9.52,9.52,0,0,0,.45,3.1,5.89,5.89,0,0,0,1.25,2.18,5.06,5.06,0,0,0,1.91,1.29,6.83,6.83,0,0,0,2.44.42,9.68,9.68,0,0,0,1.42-.09,8.61,8.61,0,0,0,1-.21Z" transform="translate(-24.55 -24.14)"/><path class="cls-2" d="M80.82,357.33l1-.1.9-.09c.3,0,.6-.05.93-.06s.67,0,1.06,0a13,13,0,0,1,2.56.26,6.38,6.38,0,0,1,2.25.88,4.9,4.9,0,0,1,1.61,1.71,5.42,5.42,0,0,1,.62,2.72,4.73,4.73,0,0,1-.33,1.8,5.85,5.85,0,0,1-2,2.54,9.34,9.34,0,0,1-1.25.78l-.31.15,5.3,7.67a14.41,14.41,0,0,1-1.55.08,12.73,12.73,0,0,1-1.37-.08l-5.82-8.43V367l.2,0a12.91,12.91,0,0,0,1.45-.48,6.26,6.26,0,0,0,1.4-.8,4.54,4.54,0,0,0,1.08-1.19,3.24,3.24,0,0,0,.43-1.69,3.32,3.32,0,0,0-1.08-2.71,4.42,4.42,0,0,0-2.9-.88l-.79,0-.83.08v16.23l-.62.05-.64,0-.66,0a6.21,6.21,0,0,1-.66-.06Z" transform="translate(-24.55 -24.14)"/><path class="cls-2" d="M104.85,371.36H97.93l-1.24,4.2-.65.08-.66,0-.7,0-.62-.08,5.92-18.2c.22,0,.46-.06.71-.08s.52,0,.79,0l.73,0c.26,0,.5,0,.74.08l5.9,18.2c-.21,0-.43.06-.69.08l-.73,0-.67,0-.65-.08Zm-6.23-2.26h5.54l-2.78-9.29Z" transform="translate(-24.55 -24.14)"/><path class="cls-2" d="M111.5,357.33l.9-.1c.35,0,.71-.06,1.09-.09l1.14-.06,1.1,0a12.59,12.59,0,0,1,2.65.28,6.09,6.09,0,0,1,2.2,1,4.88,4.88,0,0,1,1.51,1.81,7.47,7.47,0,0,1,0,5.77,5.14,5.14,0,0,1-1.57,1.89,6.09,6.09,0,0,1-2.21,1,10.82,10.82,0,0,1-2.54.29h-.84l-.8-.06v6.58a10.64,10.64,0,0,1-1.29.08l-.65,0c-.23,0-.44,0-.65-.06Zm2.59,9.39.71.08c.2,0,.49,0,.88,0a7.44,7.44,0,0,0,1.56-.16,3.72,3.72,0,0,0,1.38-.6,3,3,0,0,0,1-1.17A4.36,4.36,0,0,0,120,363a4.53,4.53,0,0,0-.31-1.75,3.06,3.06,0,0,0-.88-1.14,3.36,3.36,0,0,0-1.34-.6,7.58,7.58,0,0,0-1.7-.18,15.64,15.64,0,0,0-1.64.08Z" transform="translate(-24.55 -24.14)"/><path class="cls-2" d="M125.83,357.36c.21,0,.42-.06.64-.08l.66,0,.66,0c.21,0,.42,0,.63.08v7.49h7.75v-7.49a4.86,4.86,0,0,1,.6-.08l.66,0,.67,0a6.41,6.41,0,0,1,.65.08v18.2l-.61.08-.68,0-.67,0-.62-.08v-8.43h-7.75v8.43l-.62.08-.67,0-.67,0-.63-.08Z" transform="translate(-24.55 -24.14)"/><path class="cls-2" d="M143.2,357.36c.21,0,.42-.06.64-.08l.66,0,.65,0c.22,0,.43,0,.64.08v18.2l-.62.08-.67,0-.68,0-.62-.08Z" transform="translate(-24.55 -24.14)"/><path class="cls-2" d="M149.79,372.8a16.89,16.89,0,0,0,1.74.53,9.44,9.44,0,0,0,2.23.23,4.76,4.76,0,0,0,3.1-.85,2.8,2.8,0,0,0,1-2.29,3,3,0,0,0-.22-1.22,2.46,2.46,0,0,0-.64-.87,5,5,0,0,0-1.08-.67c-.43-.2-.93-.42-1.51-.66l-1.44-.58a9.85,9.85,0,0,1-1.34-.67,4.17,4.17,0,0,1-1-.9,4,4,0,0,1-.7-1.23,4.79,4.79,0,0,1-.25-1.66,4.42,4.42,0,0,1,1.57-3.6,6.69,6.69,0,0,1,4.4-1.31,13.16,13.16,0,0,1,2.31.2,12.92,12.92,0,0,1,1.92.51,8,8,0,0,1-.55,2.1,11.86,11.86,0,0,0-1.59-.45,9,9,0,0,0-2-.21,4,4,0,0,0-2.45.65,2.28,2.28,0,0,0-.86,1.94,2.11,2.11,0,0,0,.21.95,2.88,2.88,0,0,0,.57.73,4.41,4.41,0,0,0,.84.57,8.37,8.37,0,0,0,1,.45l1.42.56a16.94,16.94,0,0,1,1.8.85,5.64,5.64,0,0,1,1.34,1,4.14,4.14,0,0,1,.85,1.4,5.75,5.75,0,0,1,.29,1.9,5.1,5.1,0,0,1-1.8,4.12,7.65,7.65,0,0,1-5,1.5c-.52,0-1,0-1.42-.05a9.8,9.8,0,0,1-1.17-.15,10.1,10.1,0,0,1-1.05-.25l-1-.33a5.36,5.36,0,0,1,.23-1.14C149.52,373.55,149.65,373.17,149.79,372.8Z" transform="translate(-24.55 -24.14)"/><path class="cls-2" d="M167.18,359.61h-4.74a4.5,4.5,0,0,1-.07-.56,5.78,5.78,0,0,1,0-.58,5.44,5.44,0,0,1,0-.57,4.17,4.17,0,0,1,.07-.54H174.5c0,.16.05.34.07.53a5.07,5.07,0,0,1,0,.55q0,.29,0,.6c0,.21,0,.4-.07.57h-4.74v15.95a9.89,9.89,0,0,1-1.26.08,10.64,10.64,0,0,1-1.32-.08Z" transform="translate(-24.55 -24.14)"/><path class="cls-2" d="M177.36,357.36h10a7.5,7.5,0,0,1,.07,1.11c0,.19,0,.38,0,.58a4.58,4.58,0,0,1-.06.56h-7.42v5.21h5.92a4.27,4.27,0,0,1,.08.55,5.43,5.43,0,0,1,0,.57c0,.18,0,.38,0,.58a4.44,4.44,0,0,1-.08.56h-5.92v6.23h7.62a7.51,7.51,0,0,1,.08,1.11c0,.19,0,.38,0,.58a4.58,4.58,0,0,1-.06.56h-10.2Z" transform="translate(-24.55 -24.14)"/><path class="cls-2" d="M171.59,195.26c-1.18,0-29-.28-56.08-22.95-34.43-28.78-52-78.39-52.14-147.47l30.08-.07c.34,137.15,75.12,140.34,78.31,140.41Z" transform="translate(-24.55 -24.14)"/><path class="cls-2" d="M78.8,195.19h0l0-15-.11-15c3-.05,71.65-2.47,77.48-110.89h-35.4V24.14h65.86v15c0,79-28.46,117.23-52.34,135.35C107.42,194.94,80.05,195.19,78.8,195.19Z" transform="translate(-24.55 -24.14)"/></svg>