<svg id="Calque_1" data-name="Calque 1" xmlns="http://www.w3.org/2000/svg" viewBox="0 0 42.32 25.55"><defs><style>.cls-1{fill:#feab06;}</style></defs><title>Mail</title><path class="cls-1" d="M70.43,62.78H29.57a.73.73,0,0,1-.73-.73V38a.73.73,0,0,1,.73-.73H70.43a.73.73,0,0,1,.73.73v24.1A.73.73,0,0,1,70.43,62.78ZM30.29,61.33H69.71V38.67H30.29Z" transform="translate(-28.84 -37.22)"/><path class="cls-1" d="M50,53.06a.73.73,0,0,1-.42-.14L29.15,38.54a.71.71,0,0,1-.17-1,.72.72,0,0,1,1-.18L50,51.44,70,37.35a.73.73,0,0,1,1,.18.72.72,0,0,1-.18,1L50.41,52.92A.7.7,0,0,1,50,53.06Z" transform="translate(-28.84 -37.22)"/><path class="cls-1" d="M70,62.78a.68.68,0,0,1-.51-.22L57.6,50.51a.72.72,0,0,1,1-1l11.93,12a.74.74,0,0,1,0,1A.73.73,0,0,1,70,62.78Z" transform="translate(-28.84 -37.22)"/><path class="cls-1" d="M29.57,62.78a.71.71,0,0,1-.51-.21.73.73,0,0,1,0-1L41,49.49a.72.72,0,0,1,1,1L30.08,62.56A.7.7,0,0,1,29.57,62.78Z" transform="translate(-28.84 -37.22)"/></svg>